<svg xmlns="http://www.w3.org/2000/svg" viewBox="0 0 473.2 345.3" enable-background="new 0 0 473.2 345.3"><style type="text/css">.st0{fill:rgba(0,0,0,0.3);}</style><path class="st0" d="M458.5 6c-5.7 0-10.4 4.3-11.1 10-1.8 15.8-15.2 27.7-31.1 27.7h-105.6c-21.4-19.8-49.2-30.3-78.5-29.5-26.7.7-51.8 11.1-71.5 29.5h-106.3c-15.9 0-29.3-11.9-31.1-27.7-.7-5.7-5.4-10-11.1-10-6.2 0-11.2 5-11.2 11.2v32.8c0 34.6 28.2 62.8 62.8 62.8h14v3.3c-14.8 16.6-14.2 42.1 1.7 58 1.1 1.1 2.5 1.7 4.1 1.7 1.5 0 3-.6 4.1-1.7 15.8-15.9 16.4-41.4 1.6-58v-3.3h36c-.6 4.8-.9 9.6-.9 14.5v49.3c0 8.6 5.4 16.3 13.5 19.2l14.1 5.1c3.1 1.1 5.1 4.1 5.1 7.3v8.6c0 8.6 5.4 16.3 13.5 19.2l14.1 5.1c3.1 1.1 5.1 4.1 5.1 7.3v44.6c0 25.1 20.4 45.6 45.6 45.6s45.6-20.4 45.6-45.6v-44.5c0-3.3 2.1-6.2 5.1-7.3l14.1-5.1c8-2.9 13.5-10.7 13.5-19.2v-8.6c0-3.3 2.1-6.2 5.1-7.3l14.1-5.1c8-2.9 13.5-10.7 13.5-19.2v-51.4c0-4.2-.2-8.3-.7-12.4h34.6v3.2c-14.9 16.6-14.3 42.1 1.6 58 1.1 1.1 2.5 1.7 4.1 1.7 1.5 0 3-.6 4.1-1.7 15.9-15.9 16.5-41.4 1.7-58v-3.2h15.1c34.6 0 62.8-28.2 62.8-62.8v-32.9c0-6.2-5-11.2-11.2-11.2zm-374.9 155c-6.6-10.2-6.6-23.4 0-33.6 6.6 10.2 6.6 23.4 0 33.6zm302.3 0c-6.6-10.2-6.6-23.4 0-33.6 6.6 10.2 6.6 23.4 0 33.6zm-299.7-66.5c-4-.1-7.2 2.4-7.4 5.6h-5.9l.4-43.8h6.6c-.2.5-.3 1-.3 1.6 0 3.3 3.2 5.9 7.2 6 3.8.1 7-4.3 7.4-7.6h5.5l-.1 43.8h-6.3c-.9-2.8-3.7-5.5-7.1-5.6zm-72.6-44.6v-21c6.6 16.2 22.5 27.4 40.7 27.4h7.2v43.7c-26.6-1.2-47.9-23.2-47.9-50.1zm114 50.2h-17.6l-.5-43.8h39.5c-10.2 13-17.5 27.9-21.4 43.8zm206.1 76.4c0 3.3-2.1 6.2-5.1 7.3l-14.1 5.1c-8.1 2.9-13.5 10.7-13.5 19.2v8.6c0 3.3-2.1 6.2-5.1 7.3l-14.1 5.1c-8.1 2.9-13.5 10.7-13.5 19.2v44.7c0 8.2-3 15.6-7.9 21.4l.2-13.7c.1-2.7-2.1-5.1-5-5.1-2.8 0-5.1 2.2-5.2 5l-.3 20.7c0 .4 0 .7.1 1.1-3.1 1.6-6.5 2.7-10 3.2l.3-20.1c.1-2.8-2.2-5.1-5-5.1s-5.1 2.2-5.2 5l-.3 20.1c-3.6-.6-6.9-1.8-10-3.4 0-.2.1-.4.1-.7l.3-20.7c.1-2.7-2.2-5.1-5-5.1s-5.1 2.2-5.2 5l-.2 13.3c-4.7-5.7-7.5-13-7.5-20.9v-44.5c0-8.6-5.4-16.3-13.5-19.2l-14.1-5.1c-3.1-1.1-5.1-4.1-5.1-7.3v-8.6c0-8.6-5.4-16.3-13.5-19.2l-14.1-5.1c-3.1-1.1-5.1-4.1-5.1-7.3v-49.3c0-4.9.3-9.8 1-14.5.6-4.3 1.5-8.5 2.6-12.6 4.4-15.8 12.6-30.5 24.1-42.7l1.1-1.2c4.6-4.8 9.7-9 15-12.6 15.2-10.4 33-16.3 51.7-16.8h2.8c19.9 0 38.9 5.9 55.1 16.9 4.7 3.2 9.3 6.9 13.5 11 .6.5 1.1 1.1 1.7 1.7 12.2 12.4 20.7 27.4 24.9 43.8 1.1 4.1 1.9 8.4 2.4 12.6.4 3.9.7 8 .7 12.1v51.4zm9.8-76.3c-1.5-6.5-3.6-12.8-6.2-18.9-3.9-9-8.9-17.3-14.9-24.9h35v43.8h-13.9zm25.3 0l.4-43.8h6.4c-.2.5-.3 1-.3 1.5 0 3.3 3.2 5.9 7.2 6 3.8.1 7.1-4.2 7.4-7.5h5.5v43.8h-6.4c-.7-2.8-3.6-5.6-7-5.7-4-.1-7.3 2.5-7.4 5.7h-5.8zm38.1 0h-1l-.6-43.8h11c18.3 0 34.2-11.2 40.7-27.4v21h.1c0 27.7-22.5 50.2-50.2 50.2zM164 125.9c-6.8 0-12.4 5.6-12.4 12.3v23.9c0 14.1 11.4 25.5 25.5 25.5h1.8c12.9 0 23.4-10.5 23.4-23.4 0-21.1-17.2-38.3-38.3-38.3zM306.6 126c-21.1 0-38.3 17.2-38.3 38.3 0 12.9 10.5 23.4 23.4 23.4h1.8c14.1 0 25.5-11.4 25.5-25.5v-23.9c0-6.8-5.6-12.4-12.4-12.3zM86.5 73.3c-4-.1-7.3 2.5-7.4 5.7 0 3.3 3.2 5.9 7.2 6s7.6-2.7 7.7-6c.1-3.2-3.5-5.6-7.5-5.7zM382.2 85c4 .1 7.6-2.7 7.7-6 .1-3.2-3.5-5.6-7.5-5.7-4-.1-7.3 2.5-7.4 5.7 0 3.3 3.2 5.9 7.2 6zM228.8 235.1c-2.2-.7-4.9.6-7.9 3.8s-4.9 6.8-5.7 10.8c-.4 2.5-.2 4.8.6 6.8 1.5 3.3 4.2 5.5 8.2 6.8 6.1 1.9 7-27.5 4.8-28.2zM250 238.9c-3-3.2-5.7-4.5-7.9-3.8-2.2.7-1.3 30.1 4.8 28.2 4-1.3 6.7-3.5 8.2-6.8.8-2 1-4.3.6-6.8-.7-4-2.6-7.6-5.7-10.8z"/><circle class="st0" cx="235.4" cy="94.5" r="8"/><path class="st0" d="M261.4 86.5c-2.6-8.6-9.5-15.4-18.1-18.1-.4-4.1-3.8-7.3-8-7.3s-7.6 3.2-8 7.3c-8.6 2.6-15.4 9.5-18.1 18.1-4.1.4-7.3 3.8-7.3 8s3.2 7.6 7.3 8c2.6 8.6 9.5 15.4 18.1 18.1.4 4.1 3.8 7.3 8 7.3s7.6-3.2 8-7.3c8.6-2.6 15.4-9.5 18.1-18.1 4.1-.4 7.3-3.9 7.3-8 0-4.2-3.2-7.6-7.3-8zm-8.6 8.9c-.5 8.9-7.6 15.9-16.4 16.4-.3 0-.6-.1-1-.1s-.7 0-1 .1c-8.8-.5-15.9-7.6-16.4-16.4 0-.3.1-.6.1-1 0-.3 0-.7-.1-1 .5-8.8 7.6-15.9 16.4-16.4.3 0 .6.1 1 .1s.7 0 1-.1c8.8.5 15.9 7.6 16.4 16.4 0 .3-.1.6-.1 1 0 .3 0 .7.1 1z"/></svg>