<?xml version="1.0" standalone="no"?>
<!DOCTYPE svg PUBLIC "-//W3C//DTD SVG 20010904//EN"
 "http://www.w3.org/TR/2001/REC-SVG-20010904/DTD/svg10.dtd">
<svg version="1.0" xmlns="http://www.w3.org/2000/svg"
 width="2084.000000pt" height="2084.000000pt" viewBox="0 0 2084.000000 2084.000000"
 preserveAspectRatio="xMidYMid meet">
<metadata>
Created by potrace 1.14, written by Peter Selinger 2001-2017
</metadata>
<g transform="translate(0.000000,2084.000000) scale(0.100000,-0.100000)"
fill="#000000" stroke="none">
<path d="M15002 20819 c-81 -23 -271 -145 -817 -523 -343 -237 -938 -666
-1028 -741 -7 -5 -84 -64 -172 -130 -88 -66 -162 -122 -165 -125 -3 -3 -43
-35 -90 -70 -47 -36 -87 -67 -90 -70 -3 -3 -25 -21 -50 -40 -48 -37 -322 -254
-353 -280 -10 -8 -27 -22 -37 -30 -10 -8 -35 -28 -56 -45 -52 -41 -450 -370
-494 -409 -20 -17 -60 -51 -90 -76 -30 -25 -73 -61 -95 -81 -22 -19 -76 -66
-120 -104 -44 -38 -103 -89 -131 -114 -28 -25 -82 -73 -119 -106 -77 -66 -287
-255 -295 -264 -3 -3 -54 -51 -115 -106 -60 -55 -119 -109 -131 -120 -11 -11
-97 -92 -189 -180 -290 -275 -739 -729 -1025 -1035 -40 -43 -285 -316 -359
-400 -46 -52 -96 -108 -110 -125 -24 -27 -220 -259 -263 -310 -85 -102 -179
-221 -303 -381 -81 -104 -152 -196 -158 -204 -89 -110 -451 -629 -480 -686
-41 -79 -49 -226 -22 -384 2 -14 9 -56 15 -95 6 -38 15 -88 20 -110 5 -22 12
-56 15 -75 3 -19 8 -43 11 -52 3 -9 6 -25 8 -35 7 -32 57 -227 67 -258 5 -16
27 -88 50 -160 22 -71 54 -166 71 -210 16 -44 31 -87 33 -95 2 -8 35 -94 73
-190 38 -96 68 -176 67 -178 -4 -5 -85 23 -184 64 -139 58 -327 157 -456 241
-172 112 -188 118 -320 118 -100 0 -115 -3 -163 -28 -59 -31 -118 -88 -144
-138 -30 -59 -312 -776 -368 -934 -9 -27 -51 -144 -92 -260 -111 -311 -306
-903 -367 -1120 -11 -38 -41 -144 -67 -235 -25 -91 -52 -179 -60 -197 -18 -40
-18 -88 1 -149 8 -27 35 -123 61 -214 73 -264 189 -595 278 -794 14 -33 25
-61 23 -63 -2 -1 -37 9 -78 23 -41 14 -107 31 -148 38 -190 34 -368 -33 -446
-168 -49 -85 -60 -184 -59 -531 1 -275 13 -416 56 -660 5 -33 12 -71 14 -85 3
-14 17 -80 32 -146 l28 -122 -40 -12 c-138 -41 -245 -160 -280 -311 -13 -56
-14 -177 -1 -239 2 -14 7 -41 10 -60 37 -231 209 -661 439 -1094 25 -49 45
-93 44 -98 -2 -5 -36 -20 -76 -34 -113 -38 -186 -99 -236 -198 -33 -64 -37
-83 -43 -172 -4 -59 1 -93 31 -206 51 -195 132 -412 205 -548 148 -277 297
-487 471 -660 46 -47 84 -88 83 -91 -1 -4 -19 -60 -39 -125 -20 -66 -56 -189
-80 -274 -24 -85 -50 -177 -59 -205 -22 -76 -120 -442 -130 -485 -2 -8 -11
-42 -20 -75 -9 -33 -18 -67 -20 -75 -2 -8 -19 -78 -39 -155 -20 -78 -38 -150
-40 -160 -3 -11 -16 -67 -30 -125 -14 -58 -28 -120 -31 -139 -3 -19 -8 -37
-10 -41 -2 -3 -6 -17 -9 -31 -2 -13 -19 -94 -36 -179 -35 -174 -39 -284 -16
-396 61 -285 249 -502 531 -612 101 -40 184 -54 310 -55 315 -1 564 126 725
370 82 123 121 249 136 432 2 36 7 84 9 106 2 22 6 72 10 110 4 39 8 81 10 95
2 14 7 61 10 105 4 44 8 91 10 105 2 14 7 61 10 105 3 44 8 91 10 105 2 14 7
50 10 80 7 63 13 119 20 170 3 19 7 53 9 75 7 58 36 266 42 295 2 14 7 44 10
66 2 23 6 50 8 60 2 11 7 39 11 64 4 25 9 52 10 60 1 8 6 35 10 60 4 25 9 54
11 65 3 11 7 36 10 55 4 19 8 42 9 50 2 8 4 22 4 31 1 13 19 19 89 29 274 37
571 131 857 270 301 147 387 214 437 342 17 42 21 75 21 153 -1 112 -16 165
-62 224 l-30 38 77 22 c42 12 88 27 102 32 13 6 63 23 111 39 209 70 544 211
716 302 340 181 482 326 496 509 6 66 -15 157 -48 209 l-25 40 23 14 c339 211
580 399 828 646 237 236 285 299 307 405 19 89 -6 198 -66 290 -55 84 -82 105
-207 166 -60 29 -112 55 -114 56 -9 6 9 14 130 57 282 100 566 232 825 384
107 62 177 147 291 352 94 168 237 431 246 450 4 8 28 53 53 100 247 462 579
1160 784 1650 28 69 58 140 66 157 34 76 228 564 299 753 199 529 403 1155
525 1610 5 19 19 67 29 105 18 63 118 458 126 495 2 8 10 42 19 75 15 58 100
434 110 485 2 14 14 68 25 120 37 172 33 247 -19 349 -63 124 -166 189 -358
226 -9 2 -26 4 -37 4 -20 1 2 15 145 93 139 75 359 212 396 246 68 62 92 114
115 253 11 68 21 133 23 144 24 129 36 195 40 220 13 82 17 102 21 125 3 14 7
41 10 60 3 19 7 46 10 60 3 14 7 41 10 60 3 19 10 62 16 95 6 33 13 74 15 90
3 27 12 86 19 125 2 14 11 69 21 133 2 15 6 39 9 55 2 15 7 45 9 67 3 22 7 49
10 60 4 22 16 103 22 148 3 25 7 55 19 137 10 65 15 97 21 144 3 27 7 57 9 66
2 9 6 41 10 71 3 30 8 61 10 69 2 8 6 40 10 71 3 31 7 65 9 75 2 11 7 46 10
79 4 33 9 74 11 90 9 58 37 270 39 295 2 14 7 57 11 95 4 39 9 78 10 87 2 9 6
45 10 80 3 35 7 74 10 88 2 14 7 50 10 80 3 30 8 71 10 90 2 19 7 60 10 90 3
30 8 71 10 90 2 19 7 60 10 90 3 30 8 71 10 90 2 19 7 64 10 100 3 36 8 81 10
100 2 19 7 64 10 100 4 36 8 76 10 90 2 14 6 61 10 105 3 44 8 91 10 105 2 14
6 60 10 102 3 42 8 92 10 110 2 18 6 69 10 113 3 44 8 98 10 120 2 22 7 72 10
110 11 148 16 202 20 250 3 28 7 86 10 130 3 44 7 107 10 140 3 33 8 96 10
140 3 44 7 109 10 145 46 658 44 725 -13 834 -36 66 -131 150 -201 177 -77 30
-230 34 -319 8z m-287 -1168 c-1 -9 -6 -68 -9 -131 -4 -63 -9 -133 -11 -155
-2 -22 -7 -78 -10 -125 -4 -47 -8 -103 -10 -125 -2 -22 -6 -76 -10 -120 -3
-44 -8 -96 -10 -115 -2 -19 -7 -71 -10 -115 -11 -129 -13 -154 -20 -224 -9
-84 -12 -118 -20 -216 -3 -44 -8 -87 -10 -95 -2 -8 -7 -49 -10 -90 -3 -41 -8
-86 -10 -100 -2 -14 -6 -59 -10 -100 -3 -41 -8 -82 -10 -90 -2 -8 -7 -46 -10
-85 -4 -38 -8 -81 -10 -95 -3 -23 -8 -70 -20 -170 -2 -19 -7 -57 -10 -85 -10
-95 -15 -140 -20 -170 -3 -16 -7 -51 -10 -77 -3 -26 -7 -62 -10 -80 -2 -18
-18 -139 -35 -268 -37 -287 -38 -293 -55 -410 -9 -65 -13 -89 -20 -145 -6 -54
-13 -95 -20 -135 -3 -14 -7 -47 -11 -75 -3 -27 -8 -59 -10 -69 -2 -11 -8 -54
-14 -96 -6 -42 -12 -86 -15 -98 -2 -12 -11 -71 -20 -132 -9 -61 -18 -119 -20
-129 -3 -19 -12 -69 -21 -131 -3 -19 -30 -180 -60 -358 -30 -178 -54 -325 -54
-327 0 -8 -168 -113 -275 -173 -304 -169 -641 -304 -925 -370 -193 -45 -263
-57 -395 -67 -139 -11 -189 -30 -268 -104 -59 -55 -86 -96 -115 -172 -36 -97
-31 -191 15 -282 35 -69 66 -101 168 -169 174 -117 495 -256 697 -303 13 -3
52 -12 88 -21 56 -13 209 -42 305 -58 51 -8 197 -19 268 -20 l68 -1 -5 -30
c-9 -47 -13 -64 -35 -155 -11 -47 -22 -97 -24 -110 -11 -55 -148 -583 -182
-700 -20 -69 -38 -132 -40 -140 -15 -73 -198 -628 -298 -905 -68 -188 -215
-576 -241 -636 -8 -19 -47 -115 -86 -214 -40 -99 -78 -193 -85 -210 -8 -16
-51 -113 -95 -215 -175 -398 -257 -570 -472 -1000 -185 -370 -305 -599 -445
-850 -32 -58 -72 -131 -88 -163 l-30 -57 -190 -94 c-218 -108 -376 -173 -594
-245 -210 -70 -522 -150 -721 -186 -102 -19 -148 -26 -180 -31 -19 -2 -46 -6
-60 -9 -14 -3 -43 -7 -65 -11 -231 -33 -384 -191 -386 -399 -1 -84 7 -120 43
-194 37 -76 92 -132 162 -165 88 -41 207 -96 326 -151 63 -29 142 -65 175 -80
33 -16 94 -43 135 -61 41 -18 76 -37 78 -42 3 -10 -24 -16 -113 -28 -27 -3
-59 -8 -70 -10 -11 -2 -40 -7 -65 -10 -25 -3 -56 -7 -70 -9 -14 -2 -52 -7 -85
-11 -33 -3 -68 -8 -79 -10 -10 -2 -44 -6 -75 -9 -31 -4 -67 -8 -81 -10 -14 -2
-52 -7 -85 -11 -33 -3 -69 -8 -80 -10 -11 -2 -51 -6 -90 -9 -38 -3 -81 -7 -95
-10 -14 -2 -52 -7 -85 -10 -33 -3 -80 -8 -105 -11 -46 -5 -71 -7 -181 -19 -35
-3 -80 -8 -99 -10 -19 -2 -66 -7 -105 -10 -38 -3 -86 -8 -105 -10 -40 -5 -106
-12 -200 -21 -36 -3 -93 -9 -128 -13 -61 -7 -80 -2 -67 19 3 5 26 74 50 152
368 1201 411 1334 628 1953 148 418 194 545 254 700 19 50 36 95 37 100 2 6
10 27 19 49 9 21 17 41 17 44 0 6 116 316 130 347 5 11 46 115 91 230 90 233
296 752 364 915 24 58 102 248 174 422 184 446 478 1144 543 1287 11 24 57
130 103 235 110 253 199 454 241 544 19 41 34 76 34 79 0 8 -33 -37 -57 -77
-11 -19 -72 -120 -135 -225 -63 -104 -174 -289 -245 -410 -72 -121 -140 -236
-152 -255 -11 -19 -24 -42 -28 -50 -4 -8 -48 -85 -98 -170 -50 -85 -149 -256
-219 -380 -151 -265 -187 -329 -201 -352 -5 -9 -25 -44 -43 -78 -18 -34 -53
-95 -78 -136 -24 -42 -44 -77 -44 -78 0 -2 -49 -92 -110 -201 -60 -109 -110
-199 -110 -201 0 -2 -15 -29 -34 -61 -18 -32 -54 -97 -79 -145 -26 -47 -55
-101 -65 -120 -10 -18 -45 -82 -77 -143 -32 -60 -66 -123 -75 -140 -18 -30
-60 -110 -165 -310 -32 -60 -79 -150 -105 -200 -127 -240 -222 -428 -441 -865
-216 -433 -267 -537 -391 -800 -91 -193 -169 -356 -177 -370 -4 -8 -15 -28
-24 -45 -22 -41 -105 -219 -179 -384 -33 -75 -70 -158 -83 -186 -12 -27 -53
-126 -90 -218 -37 -92 -72 -166 -76 -165 -24 9 -486 622 -672 893 -258 376
-432 695 -378 695 6 0 187 -71 403 -157 l393 -157 95 0 c81 0 103 3 150 25 69
32 111 68 162 136 60 82 81 136 84 222 3 93 -29 201 -83 282 -171 251 -277
420 -368 584 -42 76 -205 401 -205 410 0 2 -11 28 -24 57 -13 29 -33 73 -44
98 -33 76 -118 308 -163 447 l-43 132 57 198 c57 201 83 286 164 538 55 173
191 583 203 610 11 27 64 179 65 185 0 3 6 19 12 35 7 17 47 128 89 248 62
175 80 218 93 214 9 -3 66 -26 126 -53 61 -26 128 -55 150 -64 119 -51 369
-128 515 -159 197 -41 297 -50 505 -46 246 5 339 22 433 78 116 69 202 229
203 374 0 98 -24 150 -116 248 -43 46 -255 353 -255 370 0 4 -9 20 -21 36 -18
26 -115 215 -152 299 -123 278 -225 593 -276 855 -34 178 -35 166 7 223 20 28
53 74 72 102 19 28 41 58 48 68 32 44 125 170 144 195 12 15 31 41 42 56 41
57 151 198 265 340 64 79 127 158 141 176 25 31 116 140 135 161 6 6 30 35 55
64 25 30 61 72 80 94 19 22 47 54 61 71 21 25 178 201 214 241 5 6 53 58 106
115 53 57 108 118 123 134 224 245 848 868 1132 1131 18 16 78 72 135 124 56
52 110 102 119 110 8 8 78 71 155 140 77 69 142 127 145 130 3 3 41 37 85 75
44 39 85 75 91 80 6 6 35 31 65 57 30 25 65 56 79 68 14 12 63 55 110 94 47
39 87 74 90 77 3 3 91 77 195 164 105 87 204 169 222 184 259 215 750 599
1133 886 124 92 244 182 267 199 50 37 40 31 288 208 110 79 211 151 225 160
14 9 63 43 110 76 81 57 103 62 95 23z"/>
</g>
</svg>
