<?xml version="1.0" encoding="utf-8"?>
<!-- Generator: Adobe Illustrator 21.1.0, SVG Export Plug-In . SVG Version: 6.00 Build 0)  -->
<svg version="1.1" id="Laag_1" xmlns="http://www.w3.org/2000/svg" xmlns:xlink="http://www.w3.org/1999/xlink" x="0px" y="0px"
	 viewBox="0 0 480 140" style="enable-background:new 0 0 480 140;" xml:space="preserve">
<style type="text/css">
	.st0{fill:#FFFFFF;}
	.st1{fill:#231F20;}
</style>
<g>
	<g>
		<path class="st0" d="M247.6,93.7c0.2-0.2,0.4-0.3,0.6-0.6c1-1.2,2-2.7,2.9-4.6c0.5-1.1,1-2.2,1.5-3.4c-0.4,0.9-0.8,1.8-1.2,2.6
			C250.3,90.1,249,92,247.6,93.7z"/>
		<path class="st0" d="M208.1,81.7c0.8-2,1.6-3.8,2.4-5.5c-0.6,1-1.2,2.1-1.8,3.2C208.5,80.2,208.3,80.9,208.1,81.7z"/>
		<path class="st0" d="M197.7,47.2c0.2,3.5-0.5,7.1-2,10.8c-1.5,3.7-3.7,7-6.7,10c-3,3-6.6,5.3-10.9,7c-4.3,1.7-9.1,2.4-14.5,1.9
			c-3-0.3-5.9-0.9-8.5-1.8c-2.7-0.9-5.2-2.3-7.5-4c-0.3,1-0.6,2-0.9,3.1c-0.3,1.1-0.6,2.1-0.8,3.2c-1.4,5.4-1.8,10.3-1.4,14.8
			c0.4,4.5,1.4,8.4,2.9,11.7c1.5,3.1,3.3,5.7,5.5,7.6c-1.3-1.6-2.5-3.4-3.5-5.5c-1.5-3.3-2.5-7.2-2.9-11.7c-0.4-4.5,0-9.4,1.4-14.8
			c0.2-1.1,0.5-2.1,0.8-3.2c0.3-1.1,0.6-2.1,0.9-3.1c2.3,1.7,4.8,3,7.5,4c2.7,0.9,5.5,1.5,8.5,1.8c5.4,0.5,10.2-0.1,14.5-1.9
			c4.3-1.7,7.9-4.1,10.9-7c3-3,5.2-6.3,6.7-10c1.5-3.7,2.1-7.3,2-10.8c-0.2-3.5-1.3-6.6-3.3-9.2c-0.7-0.9-1.4-1.6-2.3-2.3
			c0.1,0.1,0.2,0.2,0.2,0.3C196.5,40.7,197.5,43.7,197.7,47.2z"/>
		<path class="st0" d="M183.4,112.2c2.3-3.2,3.9-7.1,4.8-11.5c0.9-4.4,1.1-9.1,0.5-14.1c-0.2-1.3-0.5-2.2-1.2-2.5
			c-0.3-0.2-0.7-0.2-1-0.2c0,0.2,0.1,0.4,0.1,0.7c0.6,5,0.4,9.7-0.5,14.1c-0.9,4.4-2.5,8.3-4.8,11.5c-2.3,3.2-5.3,5.7-8.9,7.4
			c-3.6,1.7-7.9,2.4-12.8,1.9c-3.1-0.3-6.2-1.4-9.3-3.5c-0.8-0.5-1.6-1.2-2.3-1.8c1.3,1.5,2.8,2.8,4.4,3.9c3.1,2.1,6.2,3.3,9.3,3.5
			c4.9,0.4,9.1-0.2,12.8-1.9C178.2,117.9,181.1,115.5,183.4,112.2z"/>
		<path class="st0" d="M152,67.9c1.9-4.3,4.2-8.3,7-12c2.7-3.7,5.6-6.9,8.6-9.5c3-2.6,6-4.4,9-5.5c3-1.1,5.7-1.3,8.1-0.4
			c0.5,0.2,1,0.5,1.5,0.8c-0.9-1.3-2.1-2.3-3.6-2.8c-2.4-0.8-5.1-0.7-8.1,0.4c-3,1.1-6,2.9-9,5.5c-3,2.6-5.9,5.7-8.6,9.5
			c-2.7,3.7-5.1,7.8-7,12.1C150.6,66.6,151.3,67.3,152,67.9z"/>
		<path class="st0" d="M281.8,96.7c-0.5,0.1-1.1,0.3-1.8,0.5c-0.3,2.6-0.5,6.2-0.5,6.2l-100.4,30.1c-1.9,0.6-3.1,0.7-4.1,1
			c-2.6,0.7-5.4-0.4-6.9-1.2c0.3,0.7,0.8,1.2,1.5,1.7c1.2,0.8,4.4,2.4,7.5,1.5c1-0.2,2.2-0.3,4.1-1l100.3-30c0-0.2-0.1-0.5-0.1-0.7
			C281.3,102.7,281.4,100,281.8,96.7z"/>
		<path class="st0" d="M217.9,67.5c-1.4,0.9-3.1,2.7-5.2,5.4c-0.7,1-1.4,2.1-2.2,3.3c-0.8,1.7-1.6,3.5-2.4,5.5
			c0.2-0.7,0.4-1.5,0.6-2.2c-0.8,1.6-1.7,3.4-2.6,5.3c-0.5,1-1,2.2-1.5,3.9c-0.5,1.6-1.1,3.2-1.6,4.7c-0.5,1.5-0.9,2.9-1.2,4.1
			c-0.3,1.2-0.5,1.9-0.6,2.1c-0.5,1.7-1.1,2.9-1.7,3.8c-0.4,0.5-0.7,0.8-1,1c0,0.3,0.1,0.6,0.2,0.9c0.3,0.9,0.7,1.3,1.2,1.4
			c0.5,0,1.1-0.4,1.7-1.2c0.6-0.8,1.2-2.1,1.7-3.8c0-0.2,0.2-0.8,0.6-2.1c0.3-1.2,0.7-2.6,1.2-4.1c0.5-1.5,1-3.1,1.6-4.7
			c0.5-1.6,1.1-2.9,1.5-3.9c2.4-5.1,4.6-9.1,6.6-11.8c2.1-2.8,3.8-4.6,5.2-5.4c0.5-0.3,1-0.5,1.5-0.6c-0.1-0.6-0.2-1.1-0.5-1.4
			C220.3,66.6,219.3,66.6,217.9,67.5z"/>
		<path class="st0" d="M215.9,38.7c-0.2,1.1-0.7,3-1.4,5.9c-0.7,2.9-1.5,6.2-2.4,10c-1,3.8-2,7.9-3,12.3c-1,4.4-2.1,8.6-3.1,12.6
			c1.8-4.4,3.5-8.1,5.3-11c1-4.2,2-8.2,2.9-11.9c1-3.8,1.8-7.2,2.4-10c0.7-2.9,1.1-4.8,1.4-5.9c0.3-1.3,0.1-2.7-0.6-4.2
			c-0.7-1.5-1.6-2.6-2.7-3.2c0.2,0.4,0.5,0.8,0.7,1.2C216,36.1,216.2,37.5,215.9,38.7z"/>
		<path class="st0" d="M229.3,72.2c-0.6,2.4-1.3,4.9-2,7.5c-0.8,2.7-1.4,5.2-1.9,7.5c-0.5,2.3-0.8,4.3-0.9,5.9
			c-0.1,1.6,0.3,2.5,1,2.6c0.3,0.1,0.7,0,1,0c0-0.2,0-0.3,0-0.5c0.1-1.6,0.4-3.6,0.9-5.9c0.5-2.3,1.2-4.8,1.9-7.5
			c0.8-2.7,1.4-5.2,2-7.5c0.6-2.5,0.7-4.8,0.5-7c-0.2-2.2-0.8-4-1.8-5.3c-0.5-0.7-1.1-1.3-1.8-1.7c0.8,1.3,1.4,3,1.6,5
			C230,67.3,229.9,69.7,229.3,72.2z"/>
		<path class="st0" d="M247.8,61.5c-0.2,0.9-0.5,2.3-1,4.1c-0.5,1.8-1,3.9-1.6,6.1c-0.6,2.3-1.1,4.6-1.7,7c-0.6,2.4-1,4.6-1.3,6.6
			c-0.3,2-0.4,3.7-0.3,5.1c0.1,1.4,0.5,2.1,1.1,2.2c0.3,0.1,0.6,0,0.9,0c0,0,0-0.1,0-0.1c-0.1-1.4,0-3,0.3-5.1
			c0.3-2,0.7-4.2,1.3-6.6c0.6-2.4,1.1-4.7,1.7-7c0.6-2.3,1.1-4.3,1.6-6.1c0.5-1.8,0.8-3.2,1-4.1c0.3-1.4,0-2.7-0.7-3.9
			c-0.6-1.1-1.4-1.9-2.3-2.4c0.1,0.1,0.1,0.2,0.2,0.3C247.8,58.9,248,60.2,247.8,61.5z"/>
		<path class="st0" d="M310.3,23.1c1.1,2.6,1.8,5.6,2,9.1c0.2,3.5-0.2,7.1-1.1,10.9c-1,3.8-2.6,7.6-4.8,11.4
			c-2.3,3.8-5.3,7.4-9.1,10.7l-1.2,3.6c-0.4,2.2-0.3,3.8,0.2,4.8c0.4,0.7,1,1.2,1.8,1.4c-0.3-1-0.3-2.3,0.1-4.1l1.2-3.6
			c3.8-3.3,6.9-6.9,9.1-10.7c2.3-3.8,3.9-7.6,4.8-11.4c1-3.8,1.3-7.4,1.1-10.9c-0.2-3.5-0.9-6.5-2-9.1c-0.8-1.9-1.7-3.5-2.7-4.8
			c-0.7-1-1.5-1.8-2.3-2.3c0.1,0.1,0.1,0.2,0.2,0.2C308.6,19.6,309.5,21.2,310.3,23.1z"/>
		<path class="st0" d="M235,88.5c-0.4,1-0.9,2-1.3,3c-1.2,2.4-2.5,4.4-4.1,5.9c-1.6,1.6-3.3,2.3-5.3,2.1c-1-0.1-1.9-0.3-2.6-0.8
			c0.1,0.2,0.3,0.4,0.4,0.6c1,1.4,2.5,2.1,4.3,2.2c2,0.2,3.8-0.6,5.3-2.1c1.6-1.6,2.9-3.6,4.1-5.9c0.2-0.3,0.3-0.7,0.5-1
			c-0.5-1.1-0.9-2.2-1.1-3.6C235.1,88.8,235,88.7,235,88.5z"/>
		<path class="st0" d="M281.1,63c0.2,3-0.2,6-1.2,8.9c-1,2.9-2.4,5.4-4.2,7.4c-1.8,2-4.1,3.3-6.7,4c-2.7,0.6-5.7,0.1-8.9-1.6
			c0.7,1.8,1.6,3.3,2.8,4.5c0.4,0.4,0.8,0.7,1.2,1c-0.8-1-1.4-2.2-1.9-3.5c3.3,1.7,6.2,2.2,8.9,1.6c2.7-0.6,4.9-1.9,6.7-4
			c1.8-2,3.2-4.5,4.2-7.4c1-2.9,1.4-5.9,1.2-8.9c-0.1-1.9-0.4-3.6-0.9-5.3c-0.5-1.6-1.2-3.1-2.2-4.3c-0.5-0.6-1.1-1.2-1.8-1.7
			c0.8,1.1,1.5,2.4,1.9,3.9C280.6,59.4,281,61.2,281.1,63z"/>
		<path class="st0" d="M261.6,78.1c-0.2-0.2-0.3-0.5-0.4-0.7c-0.1-2.4,0.4-4.7,1.3-6.9c0.9-2.2,2.1-4,3.6-5.4c1.5-1.4,3.2-2.2,5-2.6
			c1.2-0.2,2.4-0.1,3.6,0.4c-0.1-0.3-0.1-0.6-0.2-1c-1.8-1.4-3.6-1.9-5.4-1.5c-1.9,0.3-3.5,1.2-5,2.6c-1.5,1.4-2.7,3.2-3.6,5.4
			c-0.9,2.2-1.3,4.5-1.3,6.9C259.8,76.5,260.6,77.5,261.6,78.1z"/>
		<path class="st0" d="M284.1,81.9c-0.8,1.2-1.7,2.2-2.6,3.3c-2.1,2.3-4.6,4.1-7.3,5.4c-2.7,1.3-5.7,1.8-8.9,1.5
			c-2.5-0.2-4.6-1-6.4-2.4c0.3,0.3,0.5,0.7,0.8,1c2,2.1,4.5,3.2,7.6,3.5c3.2,0.3,6.1-0.2,8.9-1.5c2.5-1.2,4.8-2.8,6.9-4.9
			c0.2-1.1,0.4-2.3,0.6-3.5C283.8,83.5,284,82.7,284.1,81.9z"/>
		<path class="st0" d="M327.4,81.8c-0.5-1.2-1.2-2.4-2.4-3.1c-0.1,0-0.1-0.1-0.2-0.1c0.2,0.4,0.4,0.7,0.5,1.1c0.8,2,0.5,3.8-0.9,5.6
			c-1.4,1.8-3.4,3.4-6,4.9c-2.5,1.5-5.4,2.8-8.4,4l-19.2,5.8c-0.1,0.9-0.2,1.8-0.3,2.8l21.5-6.5c3.1-1.2,5.9-2.5,8.4-4
			c2.5-1.5,4.5-3.1,6-4.9C328,85.7,328.3,83.8,327.4,81.8z"/>
		<path class="st0" d="M289.8,92.1c0.5-0.1,1.1-0.3,1.7-0.4c0.9-3.5,2-7.3,3.4-11.4c0.6,0.7,1.4,1.3,2.4,1.7c1,0.4,2.1,0.5,3.5,0.4
			c0.6-0.1,1.3-0.2,1.9-0.3c1.8-0.4,3.7-0.7,5.7-1c2.4-0.4,4.6-0.6,6.6-0.6c2-0.1,3.8,0.1,5.3,0.4c0.3,0.1,0.5,0.1,0.8,0.2
			c0-0.1,0-0.1,0-0.2c-0.4-1.1-1.3-1.8-2.8-2.1c-1.5-0.3-3.2-0.5-5.3-0.4c-2,0.1-4.3,0.3-6.6,0.6c-2,0.3-3.9,0.6-5.7,1
			c-0.6,0.2-1.2,0.3-1.9,0.3c-1.4,0.1-2.6,0-3.5-0.4c-1-0.4-1.8-1-2.4-1.7c-1.8,5.7-3.3,10.7-4.3,15.1c-1,4.4-1.7,8.5-1.9,12.5
			c-0.1,1-0.4,1.7-0.9,2.1c-0.5,0.4-1.1,0.6-1.8,0.5c-0.1,0-0.2,0-0.3-0.1c0.1,0.4,0.3,0.8,0.6,1.1c0.5,0.6,1.1,1,1.7,1.1
			c0.6,0.1,1.2-0.1,1.8-0.5c0.5-0.4,0.8-1.2,0.9-2.1c0.2-2.4,0.5-4.9,0.9-7.4l-1,0.3C288.9,97.8,289.1,94.9,289.8,92.1z"/>
		<path class="st0" d="M252.5,85.2c-0.5,1.2-1,2.3-1.5,3.4c-0.9,1.9-1.9,3.4-2.9,4.6c-0.2,0.2-0.4,0.4-0.6,0.6
			c-0.1,0.1-0.2,0.3-0.4,0.4c-1.5,1.8-3.3,2.6-5.2,2.5c-1.2-0.1-2.3-0.4-3.2-0.9c0.1,0.2,0.3,0.4,0.4,0.6c1.1,1.4,2.7,2.2,4.8,2.3
			c1.9,0.1,3.6-0.7,5.2-2.5c1.5-1.8,2.9-3.9,4.1-6.4c0.7-1.4,1.3-2.9,1.9-4.4c-0.6-1-1.2-2.1-1.6-3.3
			C253.3,83.2,252.9,84.2,252.5,85.2z"/>
		<path class="st0" d="M274.7,72.8c-1,2.7-2.5,4.6-4.4,5.7c-1.9,1.1-4,1.3-6.2,0.8c-0.9-0.2-1.8-0.6-2.5-1.1
			c1.1,1.6,2.7,2.7,4.6,3.2c2.2,0.6,4.3,0.3,6.2-0.8c1.9-1.1,3.4-2.9,4.4-5.7c1-2.7,0.9-6.3-0.2-10.8c-0.6-0.5-1.2-0.8-1.8-1.1
			C275.6,67,275.6,70.3,274.7,72.8z"/>
		<path class="st0" d="M304.9,50.5c-0.6,1.7-1.1,3.3-1.6,4.8c-0.5,1.5-0.9,2.7-1.2,3.7c1.6-2.3,2.9-4.5,4-6.8c1.1-2.3,2-4.5,2.6-6.5
			c0.6-2,1-3.9,1.2-5.6c0.2-1.7,0.1-3.1-0.3-4.1c0,0.1-0.2,0.6-0.5,1.5c-0.3,0.9-0.7,2.1-1.1,3.4c-0.4,1.4-0.9,2.9-1.5,4.6
			C306,47.2,305.4,48.8,304.9,50.5z"/>
		<path class="st0" d="M301,77c0,0,0.1,0,0.1,0c1.8-0.3,12.5-0.2,14.3-0.3c1.9-0.1,3.7,0.2,5.3,0.4c1.6,0.3,2.9,0.9,4.1,1.5
			c-0.5-0.8-1-1.5-1.9-2c-1.2-0.7-2.7-1.3-4.3-1.6c-1.6-0.3-3.4-0.5-5.3-0.4c-1.9,0.1-12.5,0.1-14.3,0.3c0,0-0.1,0-0.1,0
			c-0.3,0-0.6-0.1-0.9-0.1c0.1,0.3,0.2,0.5,0.3,0.7C298.9,76.4,299.8,76.9,301,77z"/>
		<path class="st0" d="M255.3,85.4c0.7,1.1,1.5,2.2,2.4,3.1c0.4,0.4,0.8,0.7,1.2,1.1c-1.3-1.6-2.4-3.4-3.1-5.4
			C255.6,84.6,255.5,85,255.3,85.4z"/>
		<path class="st0" d="M220.4,85.2c0.5-3.4,1.4-7.1,2.7-11.1c0.6-2.1,0.5-3.6-0.1-4.5c-0.4-0.5-0.9-0.7-1.6-0.6
			c0.1,0.8-0.1,1.8-0.4,3.1c-1.2,4.1-2.1,7.8-2.7,11.1c-0.5,3.4-0.7,6.2-0.4,8.6c0.3,2.4,0.9,4.3,2,5.6c0.5,0.6,1,1.1,1.7,1.5
			c-0.8-1.3-1.3-3-1.6-5C219.7,91.4,219.9,88.5,220.4,85.2z"/>
		<path class="st0" d="M237.1,90.6c-0.3,0.7-0.6,1.3-0.9,2c0.3,0.6,0.7,1.3,1.1,1.8c0.5,0.6,1,1.1,1.6,1.4c-0.8-1.3-1.4-2.9-1.8-4.7
			C237.1,90.9,237.1,90.7,237.1,90.6z"/>
		<path class="st0" d="M282.6,96.6c0.1-0.1-0.2,0-0.8,0.1c-0.4,3.3-0.5,6-0.5,8.1c0,0.3,0,0.5,0.1,0.7l0.2,0
			C281.6,105.5,282.1,97.1,282.6,96.6z"/>
	</g>
	<g>
		<path class="st1" d="M180,110.2c2.3-3.2,3.9-7.1,4.8-11.5c0.9-4.4,1.1-9.1,0.5-14.1c-0.2-1.3-0.5-2.2-1.2-2.5
			c-0.6-0.3-1.3-0.3-2,0c-0.7,0.3-1.5,0.9-2.3,1.7c-0.8,0.8-1.5,1.7-2.1,2.7c-0.6,1-1.1,1.9-1.4,2.8c-0.3,0.9-0.4,1.6-0.1,2.1
			c1,2.2,1.3,4.7,1.1,7.6c-0.2,2.9-1.1,5.7-2.5,8.3c-1.4,2.6-3.4,4.7-6,6.3c-2.6,1.6-5.7,2.2-9.4,1.7c-2.6-0.4-5.1-1.6-7.5-3.5
			c-2.4-1.9-4.3-4.5-5.8-7.8c-1.5-3.3-2.5-7.2-2.9-11.7c-0.4-4.5,0-9.4,1.4-14.8c0.2-1.1,0.5-2.1,0.8-3.2c0.3-1.1,0.6-2.1,0.9-3.1
			c2.3,1.7,4.8,3,7.5,4c2.7,0.9,5.5,1.5,8.5,1.8c5.4,0.5,10.2-0.1,14.5-1.9c4.3-1.7,7.9-4.1,10.9-7c3-3,5.2-6.3,6.7-10
			c1.5-3.7,2.1-7.3,2-10.8c-0.2-3.5-1.3-6.6-3.3-9.2c-2-2.7-5-4.5-8.9-5.4c-3.5-0.8-7.1-0.8-10.8-0.2c-3.7,0.6-7.3,1.9-10.8,3.9
			c-3.5,2-6.9,4.6-10,7.9c-3.2,3.3-6,7.2-8.4,11.8c-0.4-2.8-0.6-6.2-0.5-10.1c0.1-1.2-0.5-2.5-1.8-3.8c-1.2-1.3-2.6-2.3-4.1-3
			c-1.5-0.7-2.8-0.8-3.9-0.4c-1.2,0.4-1.7,1.7-1.5,3.8c0.7,9.4,3.3,16.9,7.9,22.7c-0.6,1.3-1,2.7-1.4,4.1c-0.4,1.4-0.7,2.8-1,4.3
			c-1.7,7.3-2.1,13.8-1.4,19.4c0.8,5.6,2.3,10.4,4.5,14.2c2.2,3.9,4.9,6.8,8,8.9c3.1,2.1,6.2,3.3,9.3,3.5c4.9,0.4,9.1-0.2,12.8-1.9
			C174.7,115.9,177.7,113.4,180,110.2z M155.6,53.8c2.7-3.7,5.6-6.9,8.6-9.5c3-2.6,6-4.4,9-5.5c3-1.1,5.7-1.3,8.1-0.4
			c2,0.7,3.5,2.2,4.3,4.3c0.9,2.1,1.2,4.6,1,7.3c-0.2,2.7-0.9,5.5-2.1,8.4c-1.2,2.9-2.8,5.5-4.9,7.8c-2.1,2.3-4.5,4.1-7.4,5.4
			c-2.9,1.3-6.1,1.7-9.6,1.1c-3.3-0.5-6.1-1.3-8.4-2.5c-2.2-1.2-4.1-2.6-5.7-4.3C150.5,61.6,152.8,57.6,155.6,53.8z"/>
		<path class="st1" d="M271.2,96.7c-2.2,0.6-96.6,24.7-98.3,25.2c-1.7,0.4-2.9,0.8-3.5,1c-1.3,0.4-2.5,1.3-3.5,2.7
			c-1,1.4-1.5,2.8-1.6,4.2c-0.1,1.4,0.5,2.4,1.7,3.2c1.2,0.8,4.4,2.4,7.5,1.5c1-0.2,2.2-0.3,4.1-1l100.4-30.1c0,0,0.5-8.3,1-8.8
			C279.4,94.2,273.4,96.1,271.2,96.7z"/>
		<path class="st1" d="M324,79.8c-0.5-1.2-1.2-2.4-2.4-3.1c-1.2-0.7-2.7-1.3-4.3-1.6c-1.6-0.3-3.4-0.5-5.3-0.4
			c-1.9,0.1-12.5,0.1-14.3,0.3c0,0-0.1,0-0.1,0c-1.2-0.1-2.1-0.6-2.7-1.5c-0.6-1-0.7-2.6-0.2-4.8l1.2-3.6c3.8-3.3,6.9-6.9,9.1-10.7
			c2.3-3.8,3.9-7.6,4.8-11.4c1-3.8,1.3-7.4,1.1-10.9c-0.2-3.5-0.9-6.5-2-9.1c-0.8-1.9-1.7-3.5-2.7-4.8c-1-1.3-1.9-2.2-2.9-2.7
			c-1-0.5-1.9-0.6-2.8-0.3c-0.9,0.3-1.6,1-2.2,2.2c-0.3,0.5-0.7,1.9-1.4,4.2c-0.7,2.3-1.5,5.2-2.4,8.7c-0.9,3.5-1.9,7.5-3.1,11.9
			c-1.1,4.4-2.2,9-3.3,13.8c-1.1,4.7-2.2,9.5-3.2,14.3c-0.6,2.2-1.4,4.3-2.5,6.2c-1.4,2.5-3,4.7-4.9,6.6c-1.8,1.8-3.8,3.3-5.9,4.2
			c-2.1,1-4.1,1.4-6,1.2c-1.8-0.2-3.2-0.9-4.4-2.2c-1.2-1.2-2.1-2.7-2.8-4.5c3.3,1.7,6.2,2.2,8.9,1.6c2.7-0.6,4.9-1.9,6.7-4
			c1.8-2,3.2-4.5,4.2-7.4c1-2.9,1.4-5.9,1.2-8.9c-0.1-1.9-0.4-3.6-0.9-5.3c-0.5-1.6-1.2-3.1-2.2-4.3c-1-1.2-2.2-2.1-3.7-2.7
			c-1.5-0.6-3.2-0.8-5.2-0.6c-3.5,0.5-6.5,1.8-8.9,3.9c-2.4,2.1-4.3,4.7-5.6,7.7c-1.3,3-2.1,6.3-2.3,9.7c-0.1,2,0,4,0.3,5.9
			c-0.3,0.9-0.6,1.9-0.9,2.9c-0.8,2.3-1.6,4.4-2.5,6.3c-0.9,1.9-1.9,3.4-2.9,4.6c-1,1.2-2.1,1.7-3.1,1.5c-0.7-0.1-1.1-0.8-1.1-2.2
			c-0.1-1.4,0-3,0.3-5.1c0.3-2,0.7-4.2,1.3-6.6c0.6-2.4,1.1-4.7,1.7-7c0.6-2.3,1.1-4.3,1.6-6.1c0.5-1.8,0.8-3.2,1-4.1
			c0.3-1.4,0-2.7-0.7-3.9c-0.7-1.2-1.6-2.1-2.7-2.6c-1.1-0.5-2.2-0.4-3.3,0.2c-1.1,0.6-2,2.2-2.6,4.8c-0.4,1.6-0.8,3.6-1.3,5.9
			c-0.5,2.4-1,4.9-1.4,7.6c-0.4,2.2-0.6,4.5-0.8,6.8c-0.3,1-0.6,1.9-1,2.9c-0.8,2.3-1.6,4.5-2.5,6.4c-0.9,1.9-1.9,3.4-2.9,4.6
			c-1,1.2-2.1,1.7-3.1,1.5c-0.8-0.2-1.1-1-1-2.6c0.1-1.6,0.4-3.6,0.9-5.9c0.5-2.3,1.2-4.8,1.9-7.5c0.8-2.7,1.4-5.2,2-7.5
			c0.6-2.5,0.7-4.8,0.5-7c-0.2-2.2-0.8-4-1.8-5.3c-1-1.4-2.2-2.1-3.7-2.4c-1.5-0.2-3.3,0.3-5.2,1.7c-1.9,1.4-4,3.7-6.2,7
			c-2.2,3.3-4.5,7.8-6.8,13.5c1-4,2.1-8.2,3.1-12.6c1-4.4,2-8.5,3-12.3c1-3.8,1.8-7.2,2.4-10c0.7-2.9,1.1-4.8,1.4-5.9
			c0.3-1.3,0.1-2.7-0.6-4.2c-0.7-1.5-1.6-2.6-2.7-3.3c-1.1-0.7-2.3-0.6-3.5,0.1c-1.2,0.7-2.2,2.6-2.9,5.7c-0.2,1.1-0.6,3.4-1.2,6.7
			c-0.5,3.4-1.1,7.2-1.8,11.7c-0.7,4.4-1.4,9.1-2.1,14c-0.8,4.9-1.5,9.5-2.2,13.7c-0.7,4.2-1.2,7.8-1.6,10.8c-0.4,3-0.7,4.7-0.7,5.1
			c-0.3,1.8-0.2,3.1,0.1,4c0.3,0.9,0.7,1.3,1.2,1.4c0.5,0,1.1-0.4,1.7-1.2c0.6-0.8,1.2-2.1,1.7-3.8c0-0.2,0.2-0.8,0.6-2.1
			c0.3-1.2,0.7-2.6,1.2-4.1c0.5-1.5,1-3.1,1.6-4.7c0.5-1.6,1.1-2.9,1.5-3.9c2.4-5.1,4.6-9.1,6.6-11.8c2.1-2.8,3.8-4.6,5.2-5.4
			c1.4-0.9,2.4-0.9,3,0c0.6,0.9,0.7,2.4,0.1,4.5c-1.2,4.1-2.1,7.8-2.7,11.1c-0.5,3.4-0.7,6.2-0.4,8.6c0.3,2.4,0.9,4.3,2,5.6
			c1,1.4,2.5,2.1,4.3,2.2c2,0.2,3.8-0.6,5.3-2.1c1.6-1.6,2.9-3.6,4.1-5.9c0.5-1,0.9-2,1.3-3c0,0.1,0,0.3,0.1,0.5
			c0.4,2.2,1.1,4,2.2,5.4c1.1,1.4,2.7,2.2,4.8,2.3c1.9,0.1,3.6-0.7,5.2-2.5c1.5-1.8,2.9-3.9,4.1-6.4c0.9-1.8,1.7-3.7,2.4-5.6
			c0.9,2.4,2.2,4.5,4,6.3c2,2.1,4.5,3.2,7.6,3.5c3.2,0.3,6.1-0.2,8.9-1.5c2.7-1.3,5.2-3.1,7.3-5.4c0.9-1,1.8-2.1,2.6-3.3
			c-0.1,0.8-0.3,1.5-0.4,2.3c-0.8,4.4-1.4,8.3-1.8,11.9c-0.4,3.6-0.6,6.5-0.5,8.7c0.1,1.2,0.3,2,0.8,2.7c0.5,0.6,1.1,1,1.7,1.1
			c0.6,0.1,1.2-0.1,1.8-0.5c0.5-0.4,0.8-1.2,0.9-2.1c0.3-3.9,0.9-8.1,1.9-12.5c1-4.4,2.5-9.4,4.3-15.1c0.6,0.7,1.4,1.3,2.4,1.7
			c1,0.4,2.1,0.5,3.5,0.4c0.6-0.1,1.3-0.2,1.9-0.3c1.8-0.4,3.7-0.7,5.7-1c2.4-0.4,4.6-0.6,6.6-0.6c2-0.1,3.8,0.1,5.3,0.4
			c1.5,0.3,2.4,1,2.8,2.1c0.1,0.5-0.2,1.1-1,1.6c-0.8,0.6-1.9,1.2-3.3,1.8c-1.4,0.6-3.1,1.2-4.9,1.8c-1.9,0.6-3.7,1.1-5.6,1.7
			c-1.9,0.5-3.8,1.1-5.6,1.6c-1.8,0.5-3.4,0.9-4.8,1.3c-0.7,0.2-1.9,0.5-3.5,0.9c-0.6,0.2-1.9,0.4-2.6,0.6c-0.7,2.8-0.9,5.7-1.2,8.7
			l21.5-6.5c3.1-1.2,5.9-2.5,8.4-4c2.5-1.5,4.5-3.1,6-4.9C324.5,83.6,324.8,81.7,324,79.8z M299.8,53.2c0.5-1.5,1-3.1,1.6-4.8
			c0.6-1.7,1.1-3.3,1.7-5c0.5-1.7,1-3.2,1.5-4.6c0.4-1.4,0.8-2.5,1.1-3.4c0.3-0.9,0.5-1.4,0.5-1.5c0.3,1,0.4,2.4,0.3,4.1
			c-0.2,1.7-0.5,3.6-1.2,5.6c-0.6,2-1.5,4.2-2.6,6.5c-1.1,2.3-2.5,4.6-4,6.8C298.9,56,299.3,54.7,299.8,53.2z M259,68.5
			c0.9-2.2,2.1-4,3.6-5.4c1.5-1.4,3.2-2.2,5-2.6c1.9-0.3,3.7,0.2,5.4,1.5c1.2,4.5,1.2,8.1,0.2,10.8c-1,2.7-2.5,4.6-4.4,5.7
			c-1.9,1.1-4,1.3-6.2,0.8c-2.2-0.6-3.9-1.9-5-3.9C257.7,73,258.1,70.7,259,68.5z"/>
	</g>
</g>
<g>
	<path class="st0" d="M324.7,48.7l-2.4-0.9c0,0.1,0,0.1,0,0.2c0.3,0.7,1,1.7,2.1,3.2c0.4-0.8,0.8-1.7,1.1-2.5
		C325.4,48.8,325,48.8,324.7,48.7z"/>
	<path class="st0" d="M334.5,37.2c1.4-3.5,2.5-5.8,2.5-5.8s-3.4,5.5-7,12.3c-0.6,1.6-1.2,3.3-1.7,4.9c-0.4,1.2-0.8,2.5-1.2,3.7
		c0.5-0.1,1.2-0.1,1.8-0.2c0.2-0.7,0.5-1.4,0.7-2.2C331.3,45.4,333.1,40.7,334.5,37.2z"/>
	<path class="st0" d="M322.4,47.7l2.4,0.9c0.3,0.1,0.6,0.1,0.9,0c0.1-0.3,0.2-0.6,0.4-0.8c0.1-0.2,0.2-0.5,0.3-0.7
		c0-0.1-0.1-0.3-0.2-0.4c-1.3-1.6-2.2-3.4-2.7-5.3c0.6-2.1,1.3-4.2,2.1-6.3c1.2,0.6,3.1,1.3,5,1c0.4-0.1,0.8-0.4,1-0.8
		c0.1-0.4,0.1-0.9-0.2-1.2c0,0-0.5-0.6-1-1.6c-0.6-1.2-1-2.5-1.2-3.8c5.1-7.4,13.3-13.9,18-17.3c0.1-0.9,0.1-1.8,0.2-2.5
		c-4.2,2.9-13.9,10.1-19.6,18.4c0.2,1.4,0.6,2.7,1.2,3.8c0.5,1.1,1,1.6,1,1.6c0.3,0.3,0.4,0.8,0.2,1.2c-0.1,0.4-0.5,0.7-1,0.8
		c-1.9,0.4-3.8-0.3-5-1c-0.8,2.1-1.5,4.2-2.1,6.3c0.5,1.9,1.4,3.7,2.7,5.3c0.4,0.4,0.4,1.1,0,1.5c-0.3,0.5-0.9,0.6-1.5,0.4l-2.4-0.9
		c0,0.1,0,0.1,0,0.2c0.5,0.9,1.4,2.4,3.4,4.9c0-0.1,0.1-0.2,0.1-0.2c-1.1-1.5-1.8-2.6-2.1-3.2C322.4,47.9,322.4,47.8,322.4,47.7z"/>
	<path class="st0" d="M343.5,40.2c-1.1,2.7-2.5,5.4-3.9,7.9c-0.1,0.2-0.3,0.3-0.4,0.4c-1,0.6-2.1,1.1-3.2,1.5l0.5,0.2
		c0.4,0.2,0.6,0.5,0.7,0.9c0.1,0.4,0,0.8-0.3,1.1c-0.6,0.7-1.7,1.8-3.3,2.7c0.3,0.5,0.3,1.1-0.1,1.5c-0.6,0.6-2.5,1.5-4.4,2.1
		c0.1,0.2,0.2,0.3,0.2,0.5c0.1,0.5-0.1,1.1-0.6,1.3c-1.5,0.9-2.8,1.2-3.8,1.3c0,0,0,0.1,0,0.1c-0.5,2.6-0.6,4.1-0.8,6.1
		c-0.1,1.4-1.3,2.4-2.7,2.3c-0.3,0-0.5-0.1-0.7-0.2c0.3,0.8,1.1,1.5,2.1,1.6c1.4,0.1,2.6-0.9,2.7-2.3c0.2-1.9,0.2-3.5,0.8-6.1
		c0,0,0-0.1,0-0.1c1.1-0.1,2.3-0.5,3.8-1.3c0.5-0.3,0.7-0.8,0.6-1.3c0-0.2-0.1-0.4-0.2-0.5c2-0.6,3.8-1.4,4.4-2.1
		c0.4-0.4,0.4-1.1,0.1-1.5c1.6-0.9,2.7-2,3.3-2.7c0.3-0.3,0.4-0.7,0.3-1.1c-0.1-0.4-0.3-0.7-0.7-0.9l-0.5-0.2
		c1.1-0.4,2.2-0.9,3.2-1.5c0.2-0.1,0.3-0.3,0.4-0.4c1.5-2.5,2.8-5.1,3.9-7.9c1.7-3.9,2.6-7.1,3.6-11.7c0.1-0.5-0.1-0.9-0.5-1.2
		c-0.3-0.2-0.6-0.3-0.9-0.2c0,0,0,0.1,0,0.1C346.1,33.1,345.1,36.3,343.5,40.2z"/>
	<path class="st0" d="M350.6,6.5c-0.2-0.1-0.5-0.2-0.7-0.2c0,1-0.4,9.5-2.1,18.8c-0.1,0.3-0.2,0.6-0.5,0.8c-0.5,0.4-1.1,0.7-1.6,1
		c0.3-0.1,0.7,0,1,0.2c0.3,0.3,0.5,0.7,0.5,1.1c0.5-0.3,1-0.6,1.5-1c0.3-0.2,0.4-0.5,0.5-0.8c1.8-9.9,2.1-18.9,2.1-18.9
		C351.3,7.2,351,6.7,350.6,6.5z"/>
	<path class="st0" d="M347.1,28.4C347.1,28.3,347.1,28.3,347.1,28.4C347,28.3,347,28.3,347.1,28.4C347,28.4,347,28.4,347.1,28.4z"/>
	<path class="st0" d="M328.5,53.9c1.9-0.2,5-0.5,6.6-0.8l-2.3-1.1c-0.1,0-0.2-0.1-0.2-0.2c-1.1,0.1-2.4,0.3-3.6,0.4
		C328.9,52.8,328.7,53.3,328.5,53.9z"/>
	<path class="st0" d="M325.6,48.6c0.2-0.1,0.4-0.2,0.6-0.4c0.2-0.3,0.3-0.8,0.2-1.1c-0.1,0.2-0.2,0.5-0.3,0.7
		C325.9,48.1,325.8,48.4,325.6,48.6z"/>
</g>
<g>
	<path d="M323.4,67.3c0.2-1.9,0.2-3.5,0.8-6.1c0,0,0-0.1,0-0.1c1.1-0.1,2.3-0.5,3.8-1.3c0.5-0.3,0.7-0.8,0.6-1.3
		c0-0.2-0.1-0.4-0.2-0.5c2-0.6,3.8-1.4,4.4-2.1c0.4-0.4,0.4-1.1,0.1-1.5c1.6-0.9,2.7-2,3.3-2.7c0.3-0.3,0.4-0.7,0.3-1.1
		c-0.1-0.4-0.3-0.7-0.7-0.9l-0.5-0.2c1.1-0.4,2.2-0.9,3.2-1.5c0.2-0.1,0.3-0.3,0.4-0.4c1.5-2.5,2.8-5.1,3.9-7.9
		c1.7-3.9,2.6-7.1,3.6-11.7c0.1-0.5-0.1-0.9-0.5-1.2c-0.3-0.2-0.6-0.3-1-0.2c0.5-0.3,1.1-0.6,1.6-1c0.3-0.2,0.4-0.5,0.5-0.8
		c1.8-9.9,2.1-18.9,2.1-18.9c0-0.5-0.2-0.9-0.6-1.1c-0.4-0.2-0.9-0.2-1.3,0c-0.6,0.4-15,9.5-22.6,20.9c-0.2,0.2-0.2,0.6-0.2,0.8
		c0.2,1.8,0.7,3.5,1.5,5c-1-0.3-1.9-0.8-2.3-1.1c-0.3-0.2-0.7-0.3-1.1-0.2c-0.4,0.1-0.7,0.4-0.8,0.7c-1.1,2.7-2.1,5.5-2.9,8.3
		c-0.1,0.2-0.1,0.4,0,0.6c0.3,1.1,0.7,2.2,1.2,3.3l-0.5-0.2c-0.4-0.1-0.8-0.1-1.1,0.1c-0.3,0.2-0.6,0.6-0.6,1
		c-0.1,0.9-0.1,2.4,0.4,4.3c-0.6,0.1-1,0.6-1,1.2c0,1.2,1.1,3.5,1.4,4.2c0.1,0.1,0.1,0.3,0.2,0.4c-0.2,0-0.4,0.1-0.6,0.2
		c-0.5,0.3-0.7,0.8-0.5,1.4c0.2,0.8,0.5,1.6,0.8,2.3c0.4,0.9,1,1.6,1.6,2.1c-0.5,1.5-1.7,5.7-1.8,7c-0.1,1.4,0.9,2.6,2.3,2.7
		C322.1,69.7,323.3,68.6,323.4,67.3L323.4,67.3z M321.4,39.3c0.6-2.1,1.3-4.2,2.1-6.3c1.2,0.6,3.1,1.3,5,1c0.4-0.1,0.8-0.4,1-0.8
		c0.1-0.4,0.1-0.9-0.2-1.2c0,0-0.5-0.6-1-1.6c-0.6-1.2-1-2.5-1.2-3.8c5.7-8.3,15.4-15.5,19.6-18.4c-0.2,3.2-0.7,9.2-1.9,15.6
		c-2.7,1.8-5,1.9-5,1.9c-0.5,0-1,0.4-1.1,0.9c-0.2,0.5,0,1.1,0.5,1.4c1,0.8,2.9,1.3,4.6,1.3c-0.8,3.5-1.7,6.2-3,9.5
		c-1.1,2.5-2.3,5-3.6,7.3c-1.7,1-3.6,1.6-5.7,1.8c-0.6,0.1-1,0.5-1.1,1c-0.1,0.6,0.2,1.1,0.7,1.3l2.3,1.1c-1.6,0.2-4.6,0.6-6.6,0.8
		c0.4-1.2,0.8-2.5,1.2-3.7c1.6-4.7,3.4-9.4,4.8-12.9c1.4-3.5,2.5-5.8,2.5-5.8s-5.3,8.5-9.6,17.7c-0.6,1.2-1.1,2.4-1.6,3.6
		c-1.9-2.4-2.9-4-3.4-4.9c0,0,0-0.1,0-0.2l2.4,0.9c0.5,0.2,1.1,0,1.5-0.4c0.3-0.5,0.3-1.1,0-1.5C322.8,43,321.9,41.2,321.4,39.3
		L321.4,39.3z M321.4,39.3"/>
</g>
</svg>
